<svg width="73" height="72" viewBox="0 0 73 72" fill="none" xmlns="http://www.w3.org/2000/svg">
<path id="airplane.circle" d="M36.3903 71.977C55.9738 71.977 72.138 55.8128 72.138 36.2639C72.138 16.7149 55.9393 0.550781 36.3558 0.550781C16.8069 0.550781 0.677246 16.7149 0.677246 36.2639C0.677246 55.8128 16.8414 71.977 36.3903 71.977ZM36.3903 64.862C20.537 64.862 7.86131 52.1172 7.86131 36.2639C7.86131 20.4106 20.537 7.70031 36.3558 7.70031C52.2091 7.70031 64.9539 20.4106 64.9884 36.2639C65.023 52.1172 52.2436 64.862 36.3903 64.862ZM58.5988 36.333C58.5988 33.9843 55.5594 32.1538 51.7946 32.1538H44.507C43.678 32.1538 43.4362 32.0501 42.8836 31.4284L30.8641 18.4764C30.4151 17.9583 29.828 17.682 29.1717 17.682H26.9267C26.1323 17.682 25.6833 18.4419 26.0287 19.2017L31.9694 32.2228L23.7837 33.1208L20.7097 27.5946C20.3643 27.0075 19.8463 26.7312 19.121 26.7312H18.292C17.6012 26.7312 17.0486 27.2493 17.0486 27.94V44.6913C17.0486 45.3821 17.6012 45.9002 18.292 45.9002H19.121C19.8463 45.9002 20.3643 45.6239 20.7097 45.0367L23.7837 39.5105L31.9694 40.4085L26.0287 53.4296C25.6833 54.1895 26.1323 54.9494 26.9267 54.9494H29.1717C29.828 54.9494 30.4151 54.673 30.8641 54.155L42.8836 41.2029C43.4362 40.6158 43.678 40.4776 44.507 40.4776H51.7946C55.5594 40.4776 58.5988 38.6816 58.5988 36.333Z" fill="#1C1C1E"/>
</svg>
