<svg width="68" height="46" viewBox="0 0 68 46" fill="none" xmlns="http://www.w3.org/2000/svg">
<path d="M7.05156 15.4613H13.8498V11.8805C13.8498 9.36366 15.225 8.0144 17.7678 8.0144H27.3683C29.9111 8.0144 31.2863 9.36366 31.2863 11.8805V15.4613H37.1245V11.8805C37.1245 9.36366 38.4997 8.0144 41.1463 8.0144H50.2538C52.9264 8.0144 54.3016 9.36366 54.3016 11.8805V15.4613H61.0998V8.0144C61.0998 3.08441 58.4532 0.515625 53.627 0.515625H14.5244C9.69819 0.515625 7.05156 3.08441 7.05156 8.0144V15.4613ZM0.642578 43.1989C0.642578 44.6001 1.55073 45.4823 2.92594 45.4823H4.53467C5.90988 45.4823 6.81804 44.6001 6.81804 43.1989V39.4625C7.1294 39.5404 8.03756 39.5923 8.68624 39.5923H59.4651C60.1138 39.5923 61.022 39.5404 61.3333 39.4625V43.1989C61.3333 44.6001 62.2415 45.4823 63.6167 45.4823H65.2254C66.6006 45.4823 67.5088 44.6001 67.5088 43.1989V27.423C67.5088 22.2595 64.6546 19.4312 59.4651 19.4312H8.68624C3.49678 19.4312 0.642578 22.2595 0.642578 27.423V43.1989Z" fill="white"/>
</svg>
