<svg width="36" height="36" viewBox="0 0 36 36" fill="none" xmlns="http://www.w3.org/2000/svg">
<path id="bookmark.square" d="M6.63891 35.3742H29.3439C33.3936 35.3742 35.4935 33.2931 35.4935 29.2995V6.46333C35.4935 2.4698 33.3936 0.388672 29.3439 0.388672H6.63891C2.58914 0.388672 0.489258 2.45106 0.489258 6.46333V29.2995C0.489258 33.2931 2.58914 35.3742 6.63891 35.3742ZM6.8639 31.6994C5.12025 31.6994 4.16405 30.7994 4.16405 28.9808V6.78206C4.16405 4.96341 5.12025 4.04471 6.8639 4.04471H29.1189C30.8438 4.04471 31.8187 4.96341 31.8187 6.78206V28.9808C31.8187 30.7994 30.8438 31.6994 29.1189 31.6994H6.8639ZM12.6573 27.6496C13.1635 27.6496 13.4823 27.3871 14.2697 26.6184L17.9258 22.9999C17.9633 22.9624 18.0383 22.9624 18.0758 22.9999L21.7318 26.6184C22.538 27.3871 22.838 27.6496 23.3442 27.6496C24.0379 27.6496 24.5066 27.1622 24.5066 26.3372V10.9443C24.5066 9.10693 23.5317 8.13198 21.7131 8.13198H14.2885C12.4698 8.13198 11.4949 9.10693 11.4949 10.9443V26.3372C11.4949 27.1622 11.9636 27.6496 12.6573 27.6496Z" fill="#212121"/>
</svg>
