<svg width="34" height="32" viewBox="0 0 34 32" fill="none" xmlns="http://www.w3.org/2000/svg">
<path id="calendar" d="M5.8437 31.246H28.2083C31.7327 31.246 33.568 29.427 33.568 25.9513V6.18536C33.568 2.70967 31.7327 0.890625 28.2083 0.890625H5.8437C2.33554 0.890625 0.500244 2.69343 0.500244 6.18536V25.9513C0.500244 29.427 2.33554 31.246 5.8437 31.246ZM5.82746 28.014C4.47942 28.014 3.73231 27.3156 3.73231 25.8863V10.9441C3.73231 9.51487 4.47942 8.81648 5.82746 8.81648H28.2245C29.5726 8.81648 30.3197 9.51487 30.3197 10.9441V25.8863C30.3197 27.3156 29.5726 28.014 28.2245 28.014H5.82746ZM13.8995 14.4198H14.8577C15.4424 14.4198 15.6373 14.2412 15.6373 13.6727V12.7144C15.6373 12.1298 15.4424 11.9511 14.8577 11.9511H13.8995C13.3148 11.9511 13.1199 12.1298 13.1199 12.7144V13.6727C13.1199 14.2412 13.3148 14.4198 13.8995 14.4198ZM19.2105 14.4198H20.1687C20.7372 14.4198 20.9321 14.2412 20.9321 13.6727V12.7144C20.9321 12.1298 20.7372 11.9511 20.1687 11.9511H19.2105C18.6258 11.9511 18.4309 12.1298 18.4309 12.7144V13.6727C18.4309 14.2412 18.6258 14.4198 19.2105 14.4198ZM24.5052 14.4198H25.4635C26.0481 14.4198 26.243 14.2412 26.243 13.6727V12.7144C26.243 12.1298 26.0481 11.9511 25.4635 11.9511H24.5052C23.9368 11.9511 23.7419 12.1298 23.7419 12.7144V13.6727C23.7419 14.2412 23.9368 14.4198 24.5052 14.4198ZM8.60476 19.6496H9.54677C10.1315 19.6496 10.3264 19.4709 10.3264 18.8862V17.928C10.3264 17.3595 10.1315 17.1809 9.54677 17.1809H8.60476C8.02007 17.1809 7.82517 17.3595 7.82517 17.928V18.8862C7.82517 19.4709 8.02007 19.6496 8.60476 19.6496ZM13.8995 19.6496H14.8577C15.4424 19.6496 15.6373 19.4709 15.6373 18.8862V17.928C15.6373 17.3595 15.4424 17.1809 14.8577 17.1809H13.8995C13.3148 17.1809 13.1199 17.3595 13.1199 17.928V18.8862C13.1199 19.4709 13.3148 19.6496 13.8995 19.6496ZM19.2105 19.6496H20.1687C20.7372 19.6496 20.9321 19.4709 20.9321 18.8862V17.928C20.9321 17.3595 20.7372 17.1809 20.1687 17.1809H19.2105C18.6258 17.1809 18.4309 17.3595 18.4309 17.928V18.8862C18.4309 19.4709 18.6258 19.6496 19.2105 19.6496ZM24.5052 19.6496H25.4635C26.0481 19.6496 26.243 19.4709 26.243 18.8862V17.928C26.243 17.3595 26.0481 17.1809 25.4635 17.1809H24.5052C23.9368 17.1809 23.7419 17.3595 23.7419 17.928V18.8862C23.7419 19.4709 23.9368 19.6496 24.5052 19.6496ZM8.60476 24.8631H9.54677C10.1315 24.8631 10.3264 24.6844 10.3264 24.116V23.1577C10.3264 22.573 10.1315 22.3944 9.54677 22.3944H8.60476C8.02007 22.3944 7.82517 22.573 7.82517 23.1577V24.116C7.82517 24.6844 8.02007 24.8631 8.60476 24.8631ZM13.8995 24.8631H14.8577C15.4424 24.8631 15.6373 24.6844 15.6373 24.116V23.1577C15.6373 22.573 15.4424 22.3944 14.8577 22.3944H13.8995C13.3148 22.3944 13.1199 22.573 13.1199 23.1577V24.116C13.1199 24.6844 13.3148 24.8631 13.8995 24.8631ZM19.2105 24.8631H20.1687C20.7372 24.8631 20.9321 24.6844 20.9321 24.116V23.1577C20.9321 22.573 20.7372 22.3944 20.1687 22.3944H19.2105C18.6258 22.3944 18.4309 22.573 18.4309 23.1577V24.116C18.4309 24.6844 18.6258 24.8631 19.2105 24.8631Z" fill="#37B34A"/>
</svg>
