<svg width="60" height="72" viewBox="0 0 60 72" fill="none" xmlns="http://www.w3.org/2000/svg">
<path id="checkmark.shield.fill" d="M30.0566 71.2235C30.6924 71.2235 31.6108 70.9763 32.5291 70.5171C52.7678 60.0975 59.4787 54.6228 59.4787 41.9428V15.6996C59.4787 11.5317 57.8539 10.013 54.3572 8.56481C50.4719 6.94006 37.5446 2.38371 33.7653 1.11217C32.5997 0.758963 31.2929 0.511719 30.0566 0.511719C28.8557 0.511719 27.5489 0.758963 26.3833 1.11217C22.5687 2.31307 9.64135 6.97539 5.79141 8.56481C2.29467 9.97763 0.669922 11.5317 0.669922 15.6996V41.9428C0.669922 54.6228 7.6634 59.6031 27.6195 70.5171C28.5379 71.0116 29.4562 71.2235 30.0566 71.2235ZM26.1361 51.7266C24.7939 51.7266 23.6989 51.1614 22.71 49.8899L14.0564 39.3997C13.4207 38.5873 13.1028 37.7396 13.1028 36.8566C13.1028 35.0199 14.5509 33.5365 16.3523 33.5365C17.4825 33.5365 18.3302 33.9603 19.2485 35.0906L26.0301 43.6735L40.5822 20.3972C41.3592 19.161 42.3482 18.5252 43.4785 18.5252C45.2445 18.5252 46.9046 19.7614 46.9046 21.6334C46.9046 22.4458 46.4807 23.3288 45.9862 24.1412L29.4209 49.8546C28.6085 51.0908 27.4782 51.7266 26.1361 51.7266Z" fill="white"/>
</svg>
