<svg width="64" height="65" viewBox="0 0 64 65" fill="none" xmlns="http://www.w3.org/2000/svg">
<path d="M32.0588 64.137C49.5093 64.137 63.9129 49.7334 63.9129 32.3136C63.9129 14.8939 49.4785 0.490234 32.028 0.490234C14.6082 0.490234 0.235352 14.8939 0.235352 32.3136C0.235352 49.7334 14.639 64.137 32.0588 64.137ZM22.7641 29.2975C20.8559 29.2975 19.2863 27.6048 19.2863 25.2657C19.2863 22.8651 20.8559 21.2031 22.7641 21.2031C24.6415 21.2031 26.2419 22.8651 26.2419 25.2657C26.2419 27.6048 24.6415 29.2975 22.7641 29.2975ZM41.4765 29.2975C39.5683 29.2975 38.0295 27.6048 38.0295 25.2657C38.0295 22.8651 39.5683 21.2031 41.4765 21.2031C43.3539 21.2031 44.9851 22.8651 44.9851 25.2657C44.9851 27.6048 43.3539 29.2975 41.4765 29.2975ZM20.7636 41.3621C20.7636 40.5926 21.533 40.2233 22.2717 40.5619C24.6107 41.7929 27.3499 43.2087 32.028 43.2087C36.7369 43.2087 39.476 41.7622 41.8151 40.5619C42.5229 40.2233 43.3231 40.5926 43.3231 41.3621C43.3231 43.5165 38.7989 48.0099 32.028 48.0099C25.2878 48.0099 20.7636 43.5165 20.7636 41.3621Z" fill="white"/>
</svg>
