<svg width="59" height="51" viewBox="0 0 59 51" fill="none" xmlns="http://www.w3.org/2000/svg">
<path d="M39.9992 15.1299C43.0677 15.1299 45.7101 13.1979 46.8182 10.5271H56.166C57.5867 10.5271 58.78 9.2769 58.78 7.77102C58.78 6.26514 57.5867 5.04339 56.166 5.04339H46.8182C45.7385 2.34418 43.0962 0.412109 39.9992 0.412109C36.9022 0.412109 34.2598 2.34418 33.1801 5.04339H2.75C1.24412 5.04339 0.0507812 6.26514 0.0507812 7.77102C0.0507812 9.2769 1.24412 10.5271 2.75 10.5271H33.1801C34.2882 13.1979 36.9306 15.1299 39.9992 15.1299ZM39.9992 11.2658C38.0387 11.2658 36.5044 9.70309 36.5044 7.77102C36.5044 5.78213 38.0387 4.24784 39.9992 4.24784C41.9881 4.24784 43.4939 5.78213 43.4939 7.77102C43.4939 9.70309 41.9881 11.2658 39.9992 11.2658ZM2.66476 22.773C1.24412 22.773 0.0507812 23.9947 0.0507812 25.5006C0.0507812 26.9781 1.24412 28.2282 2.66476 28.2282H12.3251C13.4332 30.9559 16.0756 32.8595 19.1726 32.8595C22.2412 32.8595 24.8836 30.9559 25.9917 28.2282H56.0808C57.5867 28.2282 58.78 27.0065 58.78 25.5006C58.78 23.9947 57.5867 22.773 56.0808 22.773H25.9917C24.8836 20.0738 22.2412 18.1701 19.1726 18.1701C16.0756 18.1701 13.4332 20.0738 12.3251 22.773H2.66476ZM19.1726 29.0238C17.2121 29.0238 15.6494 27.4611 15.6494 25.5006C15.6494 23.5117 17.2121 22.0058 19.1726 22.0058C21.1331 22.0058 22.6674 23.5117 22.6674 25.5006C22.6674 27.4611 21.1331 29.0238 19.1726 29.0238ZM39.9992 50.5891C43.0962 50.5891 45.7385 48.657 46.8182 45.9578H56.166C57.5867 45.9578 58.78 44.7361 58.78 43.2302C58.78 41.6959 57.5867 40.5026 56.166 40.5026H46.8182C45.7385 37.8033 43.0962 35.8713 39.9992 35.8713C36.9306 35.8713 34.2598 37.8033 33.1801 40.5026H2.75C1.24412 40.5026 0.0507812 41.7243 0.0507812 43.2302C0.0507812 44.7076 1.24412 45.9578 2.75 45.9578H33.1801C34.2598 48.657 36.9022 50.5891 39.9992 50.5891ZM39.9992 46.725C38.0387 46.725 36.5044 45.1622 36.5044 43.2302C36.5044 41.2413 38.0387 39.7354 39.9992 39.7354C41.9881 39.7354 43.4939 41.2413 43.4939 43.2302C43.4939 45.1622 41.9881 46.725 39.9992 46.725Z" fill="#37B34A"/>
</svg>
