<svg width="73" height="72" viewBox="0 0 73 72" fill="none" xmlns="http://www.w3.org/2000/svg">
<path id="fork.knife.circle" d="M36.6641 71.9727C56.1973 71.9727 72.377 55.8275 72.377 36.2598C72.377 16.7266 56.1973 0.546875 36.6295 0.546875C17.0963 0.546875 0.951172 16.7266 0.951172 36.2598C0.951172 55.8275 17.1309 71.9727 36.6641 71.9727ZM36.6641 64.9546C20.7609 64.9546 8.00386 52.1629 8.00386 36.2598C8.00386 20.3566 20.7264 7.59957 36.6295 7.59957C52.5326 7.59957 65.3243 20.3566 65.3589 36.2598C65.3589 52.1629 52.5672 64.9546 36.6641 64.9546ZM29.5077 58.3167C31.1325 58.3167 32.1697 57.3833 32.1351 55.8275L31.7894 34.6003C31.7894 33.8743 32.0314 33.4249 32.6191 33.1483C35.1775 32.042 36.3184 30.832 36.1455 27.4093L35.5923 15.9314C35.5578 15.0326 35.0738 14.514 34.2786 14.514C33.4834 14.514 32.9994 15.0671 32.9994 15.966L33.1723 27.1328C33.1723 27.7896 32.7229 28.2391 32.1006 28.2391C31.4437 28.2391 30.9943 27.7896 30.9943 27.1673L30.856 15.6203C30.856 14.7905 30.3028 14.272 29.5077 14.272C28.7125 14.272 28.1939 14.7905 28.1939 15.6203L27.9865 27.1673C27.9865 27.7896 27.5716 28.2391 26.9148 28.2391C26.327 28.2391 25.8776 27.7896 25.8776 27.1328L26.0505 15.966C26.0505 15.0671 25.5665 14.514 24.7713 14.514C23.9761 14.514 23.4576 15.0326 23.423 15.9314L22.9044 27.4093C22.7661 30.832 23.8724 32.042 26.4308 33.1483C27.0185 33.4249 27.2605 33.8743 27.2605 34.6003L26.9148 55.8275C26.8802 57.3833 27.9174 58.3167 29.5077 58.3167ZM42.7487 42.2062L42.3339 55.7584C42.2993 57.3833 43.371 58.3167 44.9614 58.3167C46.6208 58.3167 47.6234 57.4524 47.6234 55.8967V15.724C47.6234 14.7214 46.932 14.272 46.2405 14.272C45.5145 14.272 45.0305 14.6523 44.4428 15.5511C41.3659 19.8035 39.2915 27.9971 39.2915 35.4646V36.7438C39.2915 38.0921 39.7756 39.0255 40.8127 39.717L41.7807 40.4084C42.4722 40.8924 42.7833 41.3764 42.7487 42.2062Z" fill="#1C1C1E"/>
</svg>
