<svg width="48" height="63" viewBox="0 0 48 63" fill="none" xmlns="http://www.w3.org/2000/svg">
<path id="hand.wave.fill" d="M1.05283 41.9458C1.14153 54.5899 9.71043 62.0888 21.1781 62.0283C29.7937 61.9679 35.3532 58.4186 39.1331 51.3717C41.8147 46.9651 43.7071 40.9485 45.2662 35.752C46.085 33.0737 47.1982 29.6953 47.2874 28.1988C47.395 26.4828 46.2698 25.2941 44.5937 25.1862C42.6582 25.0601 41.4496 26.2054 40.2308 28.727L36.3416 37.2506C35.9884 38.0908 35.5918 38.4127 35.1531 38.4157C34.6345 38.4194 34.2733 38.1028 34.2669 37.1854L34.0579 7.38981C34.045 5.55501 32.599 4.12916 30.784 4.12194C28.9693 4.15462 27.5434 5.60062 27.5362 7.41562L27.6884 29.1141C26.9688 28.8799 26.1693 28.6461 25.3306 28.4925L25.1747 3.42335C25.142 1.60863 23.696 0.182772 21.881 0.175559C20.0663 0.208234 18.6404 1.65424 18.653 3.44915L18.8268 28.219C17.9897 28.3046 17.1727 28.4101 16.356 28.5554L16.1968 5.85972C16.1839 4.02492 14.7379 2.59906 12.9031 2.61193C11.1082 2.62452 9.66256 4.09061 9.67516 5.88552L9.84808 30.5357C9.01325 30.9404 8.21859 31.3848 7.50398 31.8685L7.38366 14.7171C7.35099 12.9023 5.92479 11.4564 4.08999 11.4693C2.29507 11.4819 0.849411 12.9479 0.862002 14.7429L1.05283 41.9458Z" fill="white"/>
</svg>
