<svg width="86" height="86" viewBox="0 0 86 86" fill="none" xmlns="http://www.w3.org/2000/svg">
<g clip-path="url(#clip0_176_1877)">
<path d="M43.0012 86.0024C66.7501 86.0024 86.0024 66.7501 86.0024 43.0012C86.0024 19.2523 66.7501 0 43.0012 0C19.2523 0 0 19.2523 0 43.0012C0 66.7501 19.2523 86.0024 43.0012 86.0024Z" fill="white"/>
<path d="M33.8194 43.8013C33.7368 41.592 34.1742 39.6672 34.7964 38.0048C28.4458 35.5792 22.0246 38.6221 22.0246 38.6221C22.0246 38.6221 19.6404 48.2344 26.5476 54.2909C34.1354 60.9454 42.0366 57.555 42.6078 57.2949C39.6621 56.2571 34.1427 52.315 33.8194 43.8037" fill="#178C4F"/>
<path d="M63.2032 38.6215C63.2032 38.6215 57.1126 35.8241 50.988 37.8049C51.8386 39.5718 52.4973 41.5574 52.3126 43.8031C52.0695 46.7755 50.7012 50.2048 49.1409 52.2415C46.3702 55.8579 42.8097 57.2263 42.6152 57.2919C43.1864 57.5519 51.0925 60.9448 58.6827 54.2903C65.5899 48.2337 63.2057 38.6239 63.2057 38.6239" fill="#C68D2C"/>
<path d="M33.7871 43.8004C34.244 54.7493 42.6143 57.2916 42.6143 57.2916C42.6143 57.2916 51.376 54.1806 52.319 43.8004C53.0675 35.5856 42.6192 29.2471 42.6192 29.2471C42.6192 29.2471 33.3861 34.1881 33.7871 43.8004Z" fill="#37B34A"/>
<mask id="mask0_176_1877" style="mask-type:luminance" maskUnits="userSpaceOnUse" x="1" y="3" width="82" height="80">
<path d="M42.8236 3.05469C20.7482 3.05469 2.85308 20.9498 2.85308 43.0252C2.85308 43.6498 2.87009 44.2696 2.89683 44.8869H1.03027L3.00133 46.4545C4.74151 66.9234 21.905 82.9957 42.8236 82.9957C64.899 82.9957 82.7941 65.1006 82.7941 43.0252C82.7941 20.9498 64.899 3.05469 42.8236 3.05469ZM42.8236 71.9689C28.071 71.9689 15.8971 60.93 14.1059 46.6635L15.9797 44.7313L13.8191 44.8042L13.8847 42.3082C14.2663 26.654 27.0745 14.0814 42.8187 14.0814C58.5629 14.0814 71.7624 27.0404 71.7624 43.0252C71.7624 59.01 58.8035 71.9689 42.8187 71.9689H42.8236Z" fill="white"/>
</mask>
<g mask="url(#mask0_176_1877)">
<path d="M14.181 14.0811H13.8213V71.9685H14.181V14.0811Z" fill="#4DAD45"/>
<path d="M14.7528 14.0811H14.1816V71.9685H14.7528V14.0811Z" fill="#4EAD45"/>
<path d="M15.326 14.0811H14.7549V71.9685H15.326V14.0811Z" fill="#4FAD45"/>
<path d="M15.8973 14.0811H15.3262V71.9685H15.8973V14.0811Z" fill="#50AC45"/>
<path d="M16.4686 14.0811H15.8975V71.9685H16.4686V14.0811Z" fill="#51AC45"/>
<path d="M17.0389 14.0811H16.4678V71.9685H17.0389V14.0811Z" fill="#52AC44"/>
<path d="M17.6131 14.0811H17.042V71.9685H17.6131V14.0811Z" fill="#53AC44"/>
<path d="M18.1844 14.0811H17.6133V71.9685H18.1844V14.0811Z" fill="#54AB44"/>
<path d="M18.7557 14.0811H18.1846V71.9685H18.7557V14.0811Z" fill="#55AB44"/>
<path d="M19.326 14.0811H18.7549V71.9685H19.326V14.0811Z" fill="#56AB43"/>
<path d="M19.9002 14.0811H19.3291V71.9685H19.9002V14.0811Z" fill="#57AA43"/>
<path d="M20.4715 14.0811H19.9004V71.9685H20.4715V14.0811Z" fill="#58AA43"/>
<path d="M21.0418 14.0811H20.4707V71.9685H21.0418V14.0811Z" fill="#59AA43"/>
<path d="M21.6131 14.0811H21.042V71.9685H21.6131V14.0811Z" fill="#5AAA43"/>
<path d="M22.1874 14.0811H21.6162V71.9685H22.1874V14.0811Z" fill="#5BA942"/>
<path d="M22.7577 14.0811H22.1865V71.9685H22.7577V14.0811Z" fill="#5CA942"/>
<path d="M23.329 14.0811H22.7578V71.9685H23.329V14.0811Z" fill="#5DA942"/>
<path d="M23.9032 14.0811H23.332V71.9685H23.9032V14.0811Z" fill="#5EA942"/>
<path d="M24.4745 14.0811H23.9033V71.9685H24.4745V14.0811Z" fill="#5FA842"/>
<path d="M25.0448 14.0811H24.4736V71.9685H25.0448V14.0811Z" fill="#60A841"/>
<path d="M25.6161 14.0811H25.0449V71.9685H25.6161V14.0811Z" fill="#61A841"/>
<path d="M26.1903 14.0811H25.6191V71.9685H26.1903V14.0811Z" fill="#62A741"/>
<path d="M26.7606 14.0811H26.1895V71.9685H26.7606V14.0811Z" fill="#63A741"/>
<path d="M27.3319 14.0811H26.7607V71.9685H27.3319V14.0811Z" fill="#64A740"/>
<path d="M27.9032 14.0811H27.332V71.9685H27.9032V14.0811Z" fill="#65A740"/>
<path d="M28.4764 14.0811H27.9053V71.9685H28.4764V14.0811Z" fill="#66A640"/>
<path d="M29.0477 14.0811H28.4766V71.9685H29.0477V14.0811Z" fill="#67A640"/>
<path d="M29.619 14.0811H29.0479V71.9685H29.619V14.0811Z" fill="#68A640"/>
<path d="M30.1903 14.0811H29.6191V71.9685H30.1903V14.0811Z" fill="#69A63F"/>
<path d="M30.7635 14.0811H30.1924V71.9685H30.7635V14.0811Z" fill="#6AA53F"/>
<path d="M31.3348 14.0811H30.7637V71.9685H31.3348V14.0811Z" fill="#6BA53F"/>
<path d="M31.9061 14.0811H31.335V71.9685H31.9061V14.0811Z" fill="#6CA53F"/>
<path d="M32.4774 14.0811H31.9062V71.9685H32.4774V14.0811Z" fill="#6DA53F"/>
<path d="M33.0506 14.0811H32.4795V71.9685H33.0506V14.0811Z" fill="#6EA43E"/>
<path d="M33.6219 14.0811H33.0508V71.9685H33.6219V14.0811Z" fill="#6FA43E"/>
<path d="M34.1932 14.0811H33.6221V71.9685H34.1932V14.0811Z" fill="#70A43E"/>
<path d="M34.7645 14.0811H34.1934V71.9685H34.7645V14.0811Z" fill="#71A33E"/>
<path d="M35.3377 14.0811H34.7666V71.9685H35.3377V14.0811Z" fill="#72A33E"/>
<path d="M35.909 14.0811H35.3379V71.9685H35.909V14.0811Z" fill="#73A33D"/>
<path d="M36.4803 14.0811H35.9092V71.9685H36.4803V14.0811Z" fill="#74A33D"/>
<path d="M37.0516 14.0811H36.4805V71.9685H37.0516V14.0811Z" fill="#75A23D"/>
<path d="M37.6249 14.0811H37.0537V71.9685H37.6249V14.0811Z" fill="#76A23D"/>
<path d="M38.1961 14.0811H37.625V71.9685H38.1961V14.0811Z" fill="#77A23C"/>
<path d="M38.7674 14.0811H38.1963V71.9685H38.7674V14.0811Z" fill="#78A23C"/>
<path d="M39.3387 14.0811H38.7676V71.9685H39.3387V14.0811Z" fill="#79A13C"/>
<path d="M39.912 14.0811H39.3408V71.9685H39.912V14.0811Z" fill="#7AA13C"/>
<path d="M40.4833 14.0811H39.9121V71.9685H40.4833V14.0811Z" fill="#7BA13C"/>
<path d="M41.0545 14.0811H40.4834V71.9685H41.0545V14.0811Z" fill="#7CA13B"/>
<path d="M41.6278 14.0811H41.0566V71.9685H41.6278V14.0811Z" fill="#7DA03B"/>
<path d="M42.1991 14.0811H41.6279V71.9685H42.1991V14.0811Z" fill="#7FA03B"/>
<path d="M42.7704 14.0811H42.1992V71.9685H42.7704V14.0811Z" fill="#80A03B"/>
<path d="M43.3417 14.0811H42.7705V71.9685H43.3417V14.0811Z" fill="#819F3B"/>
<path d="M43.9149 14.0811H43.3438V71.9685H43.9149V14.0811Z" fill="#829F3A"/>
<path d="M44.4862 14.0811H43.915V71.9685H44.4862V14.0811Z" fill="#839F3A"/>
<path d="M45.0575 14.0811H44.4863V71.9685H45.0575V14.0811Z" fill="#849F3A"/>
<path d="M45.6278 14.0811H45.0566V71.9685H45.6278V14.0811Z" fill="#859E3A"/>
<path d="M46.202 14.0811H45.6309V71.9685H46.202V14.0811Z" fill="#869E3A"/>
<path d="M46.7733 14.0811H46.2021V71.9685H46.7733V14.0811Z" fill="#879E39"/>
<path d="M47.3446 14.0811H46.7734V71.9685H47.3446V14.0811Z" fill="#889E39"/>
<path d="M47.9149 14.0811H47.3438V71.9685H47.9149V14.0811Z" fill="#899D39"/>
<path d="M48.4891 14.0811H47.918V71.9685H48.4891V14.0811Z" fill="#8A9D39"/>
<path d="M49.0604 14.0811H48.4893V71.9685H49.0604V14.0811Z" fill="#8B9D38"/>
<path d="M49.6307 14.0811H49.0596V71.9685H49.6307V14.0811Z" fill="#8C9D38"/>
<path d="M50.202 14.0811H49.6309V71.9685H50.202V14.0811Z" fill="#8D9C38"/>
<path d="M50.7762 14.0811H50.2051V71.9685H50.7762V14.0811Z" fill="#8E9C38"/>
<path d="M51.3465 14.0811H50.7754V71.9685H51.3465V14.0811Z" fill="#8F9C38"/>
<path d="M51.9178 14.0811H51.3467V71.9685H51.9178V14.0811Z" fill="#909B37"/>
<path d="M52.4891 14.0811H51.918V71.9685H52.4891V14.0811Z" fill="#919B37"/>
<path d="M53.0633 14.0811H52.4922V71.9685H53.0633V14.0811Z" fill="#929B37"/>
<path d="M53.6336 14.0811H53.0625V71.9685H53.6336V14.0811Z" fill="#939B37"/>
<path d="M54.2049 14.0811H53.6338V71.9685H54.2049V14.0811Z" fill="#949A37"/>
<path d="M54.7762 14.0811H54.2051V71.9685H54.7762V14.0811Z" fill="#959A36"/>
<path d="M55.3495 14.0811H54.7783V71.9685H55.3495V14.0811Z" fill="#969A36"/>
<path d="M55.9208 14.0811H55.3496V71.9685H55.9208V14.0811Z" fill="#979A36"/>
<path d="M56.492 14.0811H55.9209V71.9685H56.492V14.0811Z" fill="#989936"/>
<path d="M57.0633 14.0811H56.4922V71.9685H57.0633V14.0811Z" fill="#999936"/>
<path d="M57.6366 14.0811H57.0654V71.9685H57.6366V14.0811Z" fill="#9A9935"/>
<path d="M58.2079 14.0811H57.6367V71.9685H58.2079V14.0811Z" fill="#9B9935"/>
<path d="M58.7792 14.0811H58.208V71.9685H58.7792V14.0811Z" fill="#9C9835"/>
<path d="M59.3524 14.0811H58.7812V71.9685H59.3524V14.0811Z" fill="#9D9835"/>
<path d="M59.9237 14.0811H59.3525V71.9685H59.9237V14.0811Z" fill="#9E9834"/>
<path d="M60.495 14.0811H59.9238V71.9685H60.495V14.0811Z" fill="#9F9734"/>
<path d="M61.0663 14.0811H60.4951V71.9685H61.0663V14.0811Z" fill="#A09734"/>
<path d="M61.6395 14.0811H61.0684V71.9685H61.6395V14.0811Z" fill="#A19734"/>
<path d="M62.2108 14.0811H61.6396V71.9685H62.2108V14.0811Z" fill="#A29734"/>
<path d="M62.7821 14.0811H62.2109V71.9685H62.7821V14.0811Z" fill="#A39633"/>
<path d="M63.3534 14.0811H62.7822V71.9685H63.3534V14.0811Z" fill="#A49633"/>
<path d="M63.9266 14.0811H63.3555V71.9685H63.9266V14.0811Z" fill="#A59633"/>
<path d="M64.4979 14.0811H63.9268V71.9685H64.4979V14.0811Z" fill="#A69633"/>
<path d="M65.0692 14.0811H64.498V71.9685H65.0692V14.0811Z" fill="#A79533"/>
<path d="M65.6405 14.0811H65.0693V71.9685H65.6405V14.0811Z" fill="#A89532"/>
<path d="M66.2137 14.0811H65.6426V71.9685H66.2137V14.0811Z" fill="#A99532"/>
<path d="M66.785 14.0811H66.2139V71.9685H66.785V14.0811Z" fill="#AA9432"/>
<path d="M67.3563 14.0811H66.7852V71.9685H67.3563V14.0811Z" fill="#AB9432"/>
<path d="M67.9276 14.0811H67.3564V71.9685H67.9276V14.0811Z" fill="#AC9431"/>
<path d="M68.5008 14.0811H67.9297V71.9685H68.5008V14.0811Z" fill="#AD9431"/>
<path d="M69.0721 14.0811H68.501V71.9685H69.0721V14.0811Z" fill="#AE9331"/>
<path d="M69.6434 14.0811H69.0723V71.9685H69.6434V14.0811Z" fill="#AF9331"/>
<path d="M70.2147 14.0811H69.6436V71.9685H70.2147V14.0811Z" fill="#B09331"/>
<path d="M70.7879 14.0811H70.2168V71.9685H70.7879V14.0811Z" fill="#B19330"/>
<path d="M71.3592 14.0811H70.7881V71.9685H71.3592V14.0811Z" fill="#B29230"/>
<path d="M71.7677 14.0811H71.3594V71.9685H71.7677V14.0811Z" fill="#B39230"/>
<path d="M1.60142 3.05469H1.03027V82.9957H1.60142V3.05469Z" fill="#37B34A"/>
<path d="M2.17466 3.05469H1.60352V82.9957H2.17466V3.05469Z" fill="#38B34A"/>
<path d="M2.74595 3.05469H2.1748V82.9957H2.74595V3.05469Z" fill="#39B24A"/>
<path d="M3.31724 3.05469H2.74609V82.9957H3.31724V3.05469Z" fill="#3AB249"/>
<path d="M3.88853 3.05469H3.31738V82.9957H3.88853V3.05469Z" fill="#3BB249"/>
<path d="M4.46177 3.05469H3.89062V82.9957H4.46177V3.05469Z" fill="#3CB249"/>
<path d="M5.03306 3.05469H4.46191V82.9957H5.03306V3.05469Z" fill="#3DB149"/>
<path d="M5.60435 3.05469H5.0332V82.9957H5.60435V3.05469Z" fill="#3EB149"/>
<path d="M6.17759 3.05469H5.60645V82.9957H6.17759V3.05469Z" fill="#3FB148"/>
<path d="M6.74888 3.05469H6.17773V82.9957H6.74888V3.05469Z" fill="#40B148"/>
<path d="M7.32017 3.05469H6.74902V82.9957H7.32017V3.05469Z" fill="#41B048"/>
<path d="M7.89146 3.05469H7.32031V82.9957H7.89146V3.05469Z" fill="#42B048"/>
<path d="M8.4647 3.05469H7.89355V82.9957H8.4647V3.05469Z" fill="#43B047"/>
<path d="M9.03599 3.05469H8.46484V82.9957H9.03599V3.05469Z" fill="#44B047"/>
<path d="M9.60728 3.05469H9.03613V82.9957H9.60728V3.05469Z" fill="#45AF47"/>
<path d="M10.1786 3.05469H9.60742V82.9957H10.1786V3.05469Z" fill="#46AF47"/>
<path d="M10.7518 3.05469H10.1807V82.9957H10.7518V3.05469Z" fill="#47AF47"/>
<path d="M11.3231 3.05469H10.752V82.9957H11.3231V3.05469Z" fill="#48AE46"/>
<path d="M11.8944 3.05469H11.3232V82.9957H11.8944V3.05469Z" fill="#49AE46"/>
<path d="M12.4657 3.05469H11.8945V82.9957H12.4657V3.05469Z" fill="#4AAE46"/>
<path d="M13.0389 3.05469H12.4678V82.9957H13.0389V3.05469Z" fill="#4BAE46"/>
<path d="M13.6102 3.05469H13.0391V82.9957H13.6102V3.05469Z" fill="#4CAD46"/>
<path d="M14.1815 3.05469H13.6104V82.9957H14.1815V3.05469Z" fill="#4DAD45"/>
<path d="M14.7528 3.05469H14.1816V82.9957H14.7528V3.05469Z" fill="#4EAD45"/>
<path d="M15.326 3.05469H14.7549V82.9957H15.326V3.05469Z" fill="#4FAD45"/>
<path d="M15.8973 3.05469H15.3262V82.9957H15.8973V3.05469Z" fill="#50AC45"/>
<path d="M16.4686 3.05469H15.8975V82.9957H16.4686V3.05469Z" fill="#51AC45"/>
<path d="M17.0389 3.05469H16.4678V82.9957H17.0389V3.05469Z" fill="#52AC44"/>
<path d="M17.6131 3.05469H17.042V82.9957H17.6131V3.05469Z" fill="#53AC44"/>
<path d="M18.1844 3.05469H17.6133V82.9957H18.1844V3.05469Z" fill="#54AB44"/>
<path d="M18.7557 3.05469H18.1846V82.9957H18.7557V3.05469Z" fill="#55AB44"/>
<path d="M19.326 3.05469H18.7549V82.9957H19.326V3.05469Z" fill="#56AB43"/>
<path d="M19.9002 3.05469H19.3291V82.9957H19.9002V3.05469Z" fill="#57AA43"/>
<path d="M20.4715 3.05469H19.9004V82.9957H20.4715V3.05469Z" fill="#58AA43"/>
<path d="M21.0418 3.05469H20.4707V82.9957H21.0418V3.05469Z" fill="#59AA43"/>
<path d="M21.6131 3.05469H21.042V82.9957H21.6131V3.05469Z" fill="#5AAA43"/>
<path d="M22.1874 3.05469H21.6162V82.9957H22.1874V3.05469Z" fill="#5BA942"/>
<path d="M22.7577 3.05469H22.1865V82.9957H22.7577V3.05469Z" fill="#5CA942"/>
<path d="M23.329 3.05469H22.7578V82.9957H23.329V3.05469Z" fill="#5DA942"/>
<path d="M23.9032 3.05469H23.332V82.9957H23.9032V3.05469Z" fill="#5EA942"/>
<path d="M24.4745 3.05469H23.9033V82.9957H24.4745V3.05469Z" fill="#5FA842"/>
<path d="M25.0448 3.05469H24.4736V82.9957H25.0448V3.05469Z" fill="#60A841"/>
<path d="M25.6161 3.05469H25.0449V82.9957H25.6161V3.05469Z" fill="#61A841"/>
<path d="M26.1903 3.05469H25.6191V82.9957H26.1903V3.05469Z" fill="#62A741"/>
<path d="M26.7606 3.05469H26.1895V82.9957H26.7606V3.05469Z" fill="#63A741"/>
<path d="M27.3319 3.05469H26.7607V82.9957H27.3319V3.05469Z" fill="#64A740"/>
<path d="M27.9032 3.05469H27.332V82.9957H27.9032V3.05469Z" fill="#65A740"/>
<path d="M28.4764 3.05469H27.9053V82.9957H28.4764V3.05469Z" fill="#66A640"/>
<path d="M29.0477 3.05469H28.4766V82.9957H29.0477V3.05469Z" fill="#67A640"/>
<path d="M29.619 3.05469H29.0479V82.9957H29.619V3.05469Z" fill="#68A640"/>
<path d="M30.1903 3.05469H29.6191V82.9957H30.1903V3.05469Z" fill="#69A63F"/>
<path d="M30.7635 3.05469H30.1924V82.9957H30.7635V3.05469Z" fill="#6AA53F"/>
<path d="M31.3348 3.05469H30.7637V82.9957H31.3348V3.05469Z" fill="#6BA53F"/>
<path d="M31.9061 3.05469H31.335V82.9957H31.9061V3.05469Z" fill="#6CA53F"/>
<path d="M32.4774 3.05469H31.9062V82.9957H32.4774V3.05469Z" fill="#6DA53F"/>
<path d="M33.0506 3.05469H32.4795V82.9957H33.0506V3.05469Z" fill="#6EA43E"/>
<path d="M33.6219 3.05469H33.0508V82.9957H33.6219V3.05469Z" fill="#6FA43E"/>
<path d="M34.1932 3.05469H33.6221V82.9957H34.1932V3.05469Z" fill="#70A43E"/>
<path d="M34.7645 3.05469H34.1934V82.9957H34.7645V3.05469Z" fill="#71A33E"/>
<path d="M35.3377 3.05469H34.7666V82.9957H35.3377V3.05469Z" fill="#72A33E"/>
<path d="M35.909 3.05469H35.3379V82.9957H35.909V3.05469Z" fill="#73A33D"/>
<path d="M36.4803 3.05469H35.9092V82.9957H36.4803V3.05469Z" fill="#74A33D"/>
<path d="M37.0516 3.05469H36.4805V82.9957H37.0516V3.05469Z" fill="#75A23D"/>
<path d="M37.6249 3.05469H37.0537V82.9957H37.6249V3.05469Z" fill="#76A23D"/>
<path d="M38.1961 3.05469H37.625V82.9957H38.1961V3.05469Z" fill="#77A23C"/>
<path d="M38.7674 3.05469H38.1963V82.9957H38.7674V3.05469Z" fill="#78A23C"/>
<path d="M39.3387 3.05469H38.7676V82.9957H39.3387V3.05469Z" fill="#79A13C"/>
<path d="M39.912 3.05469H39.3408V82.9957H39.912V3.05469Z" fill="#7AA13C"/>
<path d="M40.4833 3.05469H39.9121V82.9957H40.4833V3.05469Z" fill="#7BA13C"/>
<path d="M41.0545 3.05469H40.4834V82.9957H41.0545V3.05469Z" fill="#7CA13B"/>
<path d="M41.6278 3.05469H41.0566V82.9957H41.6278V3.05469Z" fill="#7DA03B"/>
<path d="M42.1991 3.05469H41.6279V82.9957H42.1991V3.05469Z" fill="#7FA03B"/>
<path d="M42.7704 3.05469H42.1992V82.9957H42.7704V3.05469Z" fill="#80A03B"/>
<path d="M43.3417 3.05469H42.7705V82.9957H43.3417V3.05469Z" fill="#819F3B"/>
<path d="M43.9149 3.05469H43.3438V82.9957H43.9149V3.05469Z" fill="#829F3A"/>
<path d="M44.4862 3.05469H43.915V82.9957H44.4862V3.05469Z" fill="#839F3A"/>
<path d="M45.0575 3.05469H44.4863V82.9957H45.0575V3.05469Z" fill="#849F3A"/>
<path d="M45.6278 3.05469H45.0566V82.9957H45.6278V3.05469Z" fill="#859E3A"/>
<path d="M46.202 3.05469H45.6309V82.9957H46.202V3.05469Z" fill="#869E3A"/>
<path d="M46.7733 3.05469H46.2021V82.9957H46.7733V3.05469Z" fill="#879E39"/>
<path d="M47.3446 3.05469H46.7734V82.9957H47.3446V3.05469Z" fill="#889E39"/>
<path d="M47.9149 3.05469H47.3438V82.9957H47.9149V3.05469Z" fill="#899D39"/>
<path d="M48.4891 3.05469H47.918V82.9957H48.4891V3.05469Z" fill="#8A9D39"/>
<path d="M49.0604 3.05469H48.4893V82.9957H49.0604V3.05469Z" fill="#8B9D38"/>
<path d="M49.6307 3.05469H49.0596V82.9957H49.6307V3.05469Z" fill="#8C9D38"/>
<path d="M50.202 3.05469H49.6309V82.9957H50.202V3.05469Z" fill="#8D9C38"/>
<path d="M50.7762 3.05469H50.2051V82.9957H50.7762V3.05469Z" fill="#8E9C38"/>
<path d="M51.3465 3.05469H50.7754V82.9957H51.3465V3.05469Z" fill="#8F9C38"/>
<path d="M51.9178 3.05469H51.3467V82.9957H51.9178V3.05469Z" fill="#909B37"/>
<path d="M52.4891 3.05469H51.918V82.9957H52.4891V3.05469Z" fill="#919B37"/>
<path d="M53.0633 3.05469H52.4922V82.9957H53.0633V3.05469Z" fill="#929B37"/>
<path d="M53.6336 3.05469H53.0625V82.9957H53.6336V3.05469Z" fill="#939B37"/>
<path d="M54.2049 3.05469H53.6338V82.9957H54.2049V3.05469Z" fill="#949A37"/>
<path d="M54.7762 3.05469H54.2051V82.9957H54.7762V3.05469Z" fill="#959A36"/>
<path d="M55.3495 3.05469H54.7783V82.9957H55.3495V3.05469Z" fill="#969A36"/>
<path d="M55.9208 3.05469H55.3496V82.9957H55.9208V3.05469Z" fill="#979A36"/>
<path d="M56.492 3.05469H55.9209V82.9957H56.492V3.05469Z" fill="#989936"/>
<path d="M57.0633 3.05469H56.4922V82.9957H57.0633V3.05469Z" fill="#999936"/>
<path d="M57.6366 3.05469H57.0654V82.9957H57.6366V3.05469Z" fill="#9A9935"/>
<path d="M58.2079 3.05469H57.6367V82.9957H58.2079V3.05469Z" fill="#9B9935"/>
<path d="M58.7792 3.05469H58.208V82.9957H58.7792V3.05469Z" fill="#9C9835"/>
<path d="M59.3524 3.05469H58.7812V82.9957H59.3524V3.05469Z" fill="#9D9835"/>
<path d="M59.9237 3.05469H59.3525V82.9957H59.9237V3.05469Z" fill="#9E9834"/>
<path d="M60.495 3.05469H59.9238V82.9957H60.495V3.05469Z" fill="#9F9734"/>
<path d="M61.0663 3.05469H60.4951V82.9957H61.0663V3.05469Z" fill="#A09734"/>
<path d="M61.6395 3.05469H61.0684V82.9957H61.6395V3.05469Z" fill="#A19734"/>
<path d="M62.2108 3.05469H61.6396V82.9957H62.2108V3.05469Z" fill="#A29734"/>
<path d="M62.7821 3.05469H62.2109V82.9957H62.7821V3.05469Z" fill="#A39633"/>
<path d="M63.3534 3.05469H62.7822V82.9957H63.3534V3.05469Z" fill="#A49633"/>
<path d="M63.9266 3.05469H63.3555V82.9957H63.9266V3.05469Z" fill="#A59633"/>
<path d="M64.4979 3.05469H63.9268V82.9957H64.4979V3.05469Z" fill="#A69633"/>
<path d="M65.0692 3.05469H64.498V82.9957H65.0692V3.05469Z" fill="#A79533"/>
<path d="M65.6405 3.05469H65.0693V82.9957H65.6405V3.05469Z" fill="#A89532"/>
<path d="M66.2137 3.05469H65.6426V82.9957H66.2137V3.05469Z" fill="#A99532"/>
<path d="M66.785 3.05469H66.2139V82.9957H66.785V3.05469Z" fill="#AA9432"/>
<path d="M67.3563 3.05469H66.7852V82.9957H67.3563V3.05469Z" fill="#AB9432"/>
<path d="M67.9276 3.05469H67.3564V82.9957H67.9276V3.05469Z" fill="#AC9431"/>
<path d="M68.5008 3.05469H67.9297V82.9957H68.5008V3.05469Z" fill="#AD9431"/>
<path d="M69.0721 3.05469H68.501V82.9957H69.0721V3.05469Z" fill="#AE9331"/>
<path d="M69.6434 3.05469H69.0723V82.9957H69.6434V3.05469Z" fill="#AF9331"/>
<path d="M70.2147 3.05469H69.6436V82.9957H70.2147V3.05469Z" fill="#B09331"/>
<path d="M70.7879 3.05469H70.2168V82.9957H70.7879V3.05469Z" fill="#B19330"/>
<path d="M71.3592 3.05469H70.7881V82.9957H71.3592V3.05469Z" fill="#B29230"/>
<path d="M71.9305 3.05469H71.3594V82.9957H71.9305V3.05469Z" fill="#B39230"/>
<path d="M72.5008 3.05469H71.9297V82.9957H72.5008V3.05469Z" fill="#B49230"/>
<path d="M73.0751 3.05469H72.5039V82.9957H73.0751V3.05469Z" fill="#B59230"/>
<path d="M73.6463 3.05469H73.0752V82.9957H73.6463V3.05469Z" fill="#B6912F"/>
<path d="M74.2176 3.05469H73.6465V82.9957H74.2176V3.05469Z" fill="#B7912F"/>
<path d="M74.7879 3.05469H74.2168V82.9957H74.7879V3.05469Z" fill="#B8912F"/>
<path d="M75.3622 3.05469H74.791V82.9957H75.3622V3.05469Z" fill="#B9902F"/>
<path d="M75.9335 3.05469H75.3623V82.9957H75.9335V3.05469Z" fill="#BA902F"/>
<path d="M76.5038 3.05469H75.9326V82.9957H76.5038V3.05469Z" fill="#BB902E"/>
<path d="M77.078 3.05469H76.5068V82.9957H77.078V3.05469Z" fill="#BC902E"/>
<path d="M77.6493 3.05469H77.0781V82.9957H77.6493V3.05469Z" fill="#BD8F2E"/>
<path d="M78.2196 3.05469H77.6484V82.9957H78.2196V3.05469Z" fill="#BE8F2E"/>
<path d="M78.7909 3.05469H78.2197V82.9957H78.7909V3.05469Z" fill="#BF8F2D"/>
<path d="M79.3651 3.05469H78.7939V82.9957H79.3651V3.05469Z" fill="#C08F2D"/>
<path d="M79.9364 3.05469H79.3652V82.9957H79.9364V3.05469Z" fill="#C18E2D"/>
<path d="M80.5067 3.05469H79.9355V82.9957H80.5067V3.05469Z" fill="#C28E2D"/>
<path d="M81.078 3.05469H80.5068V82.9957H81.078V3.05469Z" fill="#C38E2D"/>
<path d="M81.6522 3.05469H81.0811V82.9957H81.6522V3.05469Z" fill="#C48E2C"/>
<path d="M82.2225 3.05469H81.6514V82.9957H82.2225V3.05469Z" fill="#C58D2C"/>
<path d="M82.7938 3.05469H82.2227V82.9957H82.7938V3.05469Z" fill="#C68D2C"/>
</g>
<path d="M9.24295 54.5503L0.0244141 45.3537L1.05491 44.3232L9.15546 52.4043L16.6022 43.6572L17.7129 44.6027L9.24295 54.5503Z" fill="white"/>
</g>
<defs>
<clipPath id="clip0_176_1877">
<rect width="86" height="86" fill="white"/>
</clipPath>
</defs>
</svg>
