<svg width="17" height="43" viewBox="0 0 17 43" fill="none" xmlns="http://www.w3.org/2000/svg">
<path id="mappin" d="M8.69644 42.068C9.4929 42.068 10.7167 38.8239 10.7167 33.5789V15.2798C13.9997 14.3862 16.3891 11.3752 16.3891 7.82025C16.3891 3.54656 12.9701 0.0693359 8.69644 0.0693359C4.40332 0.0693359 0.984375 3.54656 0.984375 7.82025C0.984375 11.3558 3.35433 14.3668 6.6373 15.2604V33.5789C6.6373 38.7851 7.88055 42.068 8.69644 42.068ZM6.48189 8.24762C5.08323 8.24762 3.8594 7.02379 3.8594 5.58628C3.8594 4.16819 5.08323 2.96379 6.48189 2.96379C7.93883 2.96379 9.12381 4.16819 9.12381 5.58628C9.12381 7.02379 7.93883 8.24762 6.48189 8.24762Z" fill="#37B34A"/>
</svg>
