<svg width="34" height="34" viewBox="0 0 34 34" fill="none" xmlns="http://www.w3.org/2000/svg">
<path d="M16.8413 33.6396C25.9398 33.6396 33.4496 26.1298 33.4496 17.0474C33.4496 7.96493 25.9237 0.455078 16.8253 0.455078C7.74283 0.455078 0.249023 7.96493 0.249023 17.0474C0.249023 26.1298 7.75888 33.6396 16.8413 33.6396ZM16.8413 30.334C9.47587 30.334 3.58674 24.4128 3.58674 17.0474C3.58674 9.68193 9.47587 3.77674 16.8253 3.77674C24.1907 3.77674 30.1119 9.68193 30.128 17.0474C30.144 24.4128 24.2067 30.334 16.8413 30.334ZM12.9741 20.7862C16.7129 24.5251 21.4307 26.884 24.2067 24.0919C24.3191 23.9795 24.4153 23.8672 24.4956 23.7549C25.1856 22.9525 25.4102 21.8774 24.4635 21.1714C23.6932 20.6258 22.907 20.0641 21.6553 19.1976C20.7086 18.5237 20.1148 18.7002 19.3927 19.4062L18.7669 20.032C18.5904 20.2086 18.2695 20.1765 18.0609 20.0481C17.4992 19.7111 16.5685 18.973 15.6859 18.0904C14.8194 17.2078 14.0331 16.245 13.7122 15.7155C13.6159 15.539 13.5357 15.2501 13.7443 15.0255L14.3701 14.3676C15.0762 13.6134 15.2527 13.0678 14.5627 12.105L12.621 9.34495C11.9631 8.41424 11.0003 8.57471 9.90914 9.37704C9.8289 9.44123 9.76472 9.50542 9.70053 9.55356C6.89236 12.3617 9.26727 17.0795 12.9741 20.7862Z" fill="white"/>
</svg>
