<svg width="60" height="57" viewBox="0 0 60 57" fill="none" xmlns="http://www.w3.org/2000/svg">
<path id="phone.bubble.left.fill" d="M16.5732 56.228C17.6883 56.228 18.5113 55.697 19.8388 54.5023L29.6357 45.6612L46.9992 45.6878C54.9906 45.6878 59.4775 41.0681 59.4775 33.1829V12.5537C59.4775 4.66848 54.9906 0.0488281 46.9992 0.0488281H13.1483C5.18337 0.0488281 0.669922 4.66848 0.669922 12.5537V33.1829C0.669922 41.0947 5.31612 45.6612 12.9624 45.6612H14.0244V53.3607C14.0244 55.1129 14.9537 56.228 16.5732 56.228ZM23.5027 29.2535C17.0776 22.8816 13.0155 14.7839 17.821 9.95187C17.9272 9.84567 18.0334 9.73947 18.1927 9.63328C20.0778 8.25269 21.7504 7.98719 22.8655 9.58018L26.2107 14.3326C27.3789 15.9787 27.1134 16.9344 25.8656 18.2354L24.8036 19.377C24.4585 19.7487 24.5912 20.2266 24.7505 20.5187C25.3081 21.4479 26.6355 23.1205 28.1489 24.6073C29.6622 26.1472 31.2552 27.4216 32.211 28.0057C32.5827 28.2181 33.1402 28.2712 33.4588 27.9526L34.5208 26.8906C35.7421 25.6693 36.7775 25.4038 38.4236 26.5189C40.521 28.0057 41.9016 28.988 43.2291 29.9173C44.8752 31.1385 44.477 32.997 43.2822 34.3776C43.1495 34.5635 42.9902 34.7493 42.8043 34.9617C37.9988 39.7407 29.9012 35.7051 23.5027 29.2535Z" fill="white"/>
</svg>
