<svg width="38" height="46" viewBox="0 0 38 46" fill="none" xmlns="http://www.w3.org/2000/svg">
<path d="M0.336496 32.6858C-0.44351 35.8965 1.15278 37.9282 4.65374 37.9282H17.0431V43.2794C17.0431 44.3859 17.7506 45.0571 18.7845 45.0571C19.7641 45.0571 20.4897 44.3859 20.4897 43.2794V37.9282H32.8609C36.3619 37.9282 37.9582 35.8965 37.1963 32.6858L32.3349 12.5871C31.6456 9.64845 29.9767 8.07029 26.8567 8.07029H20.4897V2.71909C20.4897 1.63071 19.7641 0.941406 18.7845 0.941406C17.7506 0.941406 17.0431 1.63071 17.0431 2.71909V8.07029H10.658C7.53794 8.07029 5.86909 9.64845 5.17979 12.5871L0.336496 32.6858ZM3.81931 32.5588L8.42679 13.1857C8.71702 12.0247 9.40633 11.4443 10.658 11.4443H17.0431V34.5361H5.27048C4.10955 34.5361 3.52908 33.7561 3.81931 32.5588ZM26.8567 11.4443C28.1083 11.4443 28.8158 12.0247 29.0879 13.1857L33.6953 32.5588C33.9856 33.7561 33.4051 34.5361 32.2442 34.5361H20.4897V11.4443H26.8567Z" fill="#37B34A"/>
</svg>
