<svg width="72" height="72" viewBox="0 0 72 72" fill="none" xmlns="http://www.w3.org/2000/svg">
<g id="Group 6">
<path id="fork.knife.circle" d="M35.9019 71.9766C55.4351 71.9766 71.6148 55.8315 71.6148 36.2637C71.6148 16.7305 55.4351 0.550781 35.8673 0.550781C16.3341 0.550781 0.188965 16.7305 0.188965 36.2637C0.188965 55.8315 16.3687 71.9766 35.9019 71.9766ZM35.9019 64.9585C19.9987 64.9585 7.24166 52.1668 7.24166 36.2637C7.24166 20.3606 19.9642 7.60347 35.8673 7.60347C51.7704 7.60347 64.5621 20.3606 64.5966 36.2637C64.5966 52.1668 51.805 64.9585 35.9019 64.9585Z" fill="#1C1C1E"/>
<path id="Star 4" d="M35.9021 17.9268L41.8296 28.1036L53.34 30.5961L45.4929 39.3782L46.6793 51.0955L35.9021 46.3464L25.1249 51.0955L26.3113 39.3782L18.4643 30.5961L29.9747 28.1036L35.9021 17.9268Z" fill="#272727"/>
</g>
</svg>
