<svg width="72" height="72" viewBox="0 0 72 72" fill="none" xmlns="http://www.w3.org/2000/svg">
<g clip-path="url(#clip0_176_679)">
<path d="M37.1952 12.6948C36.5125 11.6668 34.9713 11.6668 34.2886 12.6948C31.6845 16.6152 26.4651 26.0333 26.1191 38.9356L42.9238 24.7347C41.1121 19.1241 38.7101 14.9777 37.194 12.6959L37.1952 12.6948Z" fill="#1C1C1E"/>
<path d="M44.0892 28.9492L26.2388 44.0338C26.313 45.0427 26.4214 46.0695 26.5618 47.112L44.6634 31.8149C44.4956 30.8306 44.3026 29.8754 44.088 28.9492H44.0892Z" fill="#1C1C1E"/>
<path d="M27.3701 51.6298C27.7332 53.2528 28.1807 54.9093 28.7252 56.5983C29.0654 57.6565 30.3338 58.1162 31.2962 57.5323L34.8283 55.3903C35.3889 55.0503 36.0967 55.0503 36.6561 55.3903L40.1882 57.5323C41.1506 58.1162 42.4178 57.6565 42.7592 56.5983C45.1326 49.2317 45.6874 42.469 45.2422 36.5273L27.3701 51.6298Z" fill="#1C1C1E"/>
</g>
<path d="M35.751 71.4326C55.2842 71.4326 71.4639 55.2875 71.4639 35.7197C71.4639 16.1865 55.2842 0.00683594 35.7164 0.00683594C16.1832 0.00683594 0.0380859 16.1865 0.0380859 35.7197C0.0380859 55.2875 16.2178 71.4326 35.751 71.4326ZM35.751 64.4145C19.8479 64.4145 7.09078 51.6229 7.09078 35.7197C7.09078 19.8166 19.8133 7.05953 35.7164 7.05953C51.6195 7.05953 64.4112 19.8166 64.4458 35.7197C64.4458 51.6229 51.6541 64.4145 35.751 64.4145Z" fill="#1C1C1E"/>
<defs>
<clipPath id="clip0_176_679">
<rect width="19.2626" height="45.8633" fill="white" transform="translate(26.1191 11.9238)"/>
</clipPath>
</defs>
</svg>
