<svg width="71" height="72" viewBox="0 0 71 72" fill="none" xmlns="http://www.w3.org/2000/svg">
<path id="sun.max.circle" d="M35.476 71.1464C54.8527 71.1464 70.9027 55.1306 70.9027 35.7197C70.9027 16.343 54.8527 0.292969 35.4417 0.292969C16.0651 0.292969 0.0493164 16.343 0.0493164 35.7197C0.0493164 55.1306 16.0994 71.1464 35.476 71.1464ZM35.476 64.1845C19.7003 64.1845 7.04549 51.4954 7.04549 35.7197C7.04549 19.944 19.666 7.28914 35.4417 7.28914C51.2174 7.28914 63.9066 19.944 63.9408 35.7197C63.9408 51.4954 51.2517 64.1845 35.476 64.1845ZM35.4417 14.3882C34.2414 14.3882 33.2126 15.4171 33.2126 16.6174V20.4927C33.2126 21.693 34.2414 22.7219 35.4417 22.7219C36.642 22.7219 37.7052 21.693 37.7052 20.4927V16.6174C37.7052 15.4171 36.642 14.3882 35.4417 14.3882ZM50.5315 20.6299C49.6398 19.7382 48.1652 19.7725 47.3764 20.6299L44.5985 23.4078C43.7411 24.3337 43.7411 25.7398 44.6328 26.5629C45.4559 27.4203 46.8962 27.4203 47.7536 26.5286L50.5315 23.785C51.3889 22.9276 51.3546 21.4873 50.5315 20.6299ZM20.4205 20.6299C19.5632 21.4873 19.5289 22.9276 20.3862 23.785L23.1298 26.5286C23.9872 27.4203 25.4276 27.4203 26.285 26.5629C27.1423 25.7055 27.1423 24.2652 26.285 23.4078L23.5414 20.6299C22.7183 19.8068 21.2779 19.7725 20.4205 20.6299ZM35.4417 45.871C40.9975 45.871 45.593 41.2412 45.593 35.6854C45.593 30.1296 40.9975 25.5341 35.4417 25.5341C29.8859 25.5341 25.2904 30.1296 25.2904 35.6854C25.2904 41.2412 29.8859 45.871 35.4417 45.871ZM56.7046 35.6854C56.7046 34.4508 55.7101 33.4562 54.5097 33.4562H50.6344C49.4341 33.4562 48.4052 34.4851 48.4052 35.6854C48.4052 36.8857 49.4341 37.9488 50.6344 37.9488H54.5097C55.7101 37.9488 56.7046 36.92 56.7046 35.6854ZM14.1788 35.6854C14.1788 36.92 15.2077 37.9488 16.408 37.9488H20.2491C21.4837 37.9488 22.5125 36.8857 22.5125 35.6854C22.5125 34.4851 21.4837 33.4562 20.2491 33.4562H16.408C15.2077 33.4562 14.1788 34.4508 14.1788 35.6854ZM20.3519 50.7066C21.2436 51.5982 22.684 51.5982 23.5414 50.7752L26.285 47.9973C27.1423 47.1742 27.1423 45.7338 26.285 44.8421C25.4619 43.9848 23.9872 43.9848 23.1298 44.8421L20.3519 47.5857C19.5289 48.4431 19.5289 49.8835 20.3519 50.7066ZM50.5315 50.7409C51.3889 49.8492 51.3889 48.4088 50.5315 47.5857L47.7193 44.8421C46.8962 43.9848 45.4559 43.9848 44.5985 44.8421C43.7068 45.7338 43.7411 47.1399 44.6328 47.9973L47.3764 50.7752C48.2337 51.5982 49.6398 51.5982 50.5315 50.7409ZM35.4417 57.0168C36.642 57.0168 37.7052 55.9537 37.7052 54.7534V50.9123C37.7052 49.712 36.642 48.6489 35.4417 48.6489C34.2414 48.6489 33.2126 49.712 33.2126 50.9123V54.7534C33.2126 55.9537 34.2414 57.0168 35.4417 57.0168Z" fill="#1C1C1E"/>
</svg>
