<svg width="36" height="36" viewBox="0 0 36 36" fill="none" xmlns="http://www.w3.org/2000/svg">
<path d="M6.18676 35.4894H28.8917C32.9415 35.4894 35.0414 33.4083 35.0414 29.4148V6.57856C35.0414 2.58504 32.9415 0.503906 28.8917 0.503906H6.18676C2.13699 0.503906 0.0371094 2.56629 0.0371094 6.57856V29.4148C0.0371094 33.4083 2.13699 35.4894 6.18676 35.4894ZM6.41175 31.8146C4.6681 31.8146 3.7119 30.9147 3.7119 29.096V6.89729C3.7119 5.07865 4.6681 4.15995 6.41175 4.15995H28.6667C30.3916 4.15995 31.3666 5.07865 31.3666 6.89729V29.096C31.3666 30.9147 30.3916 31.8146 28.6667 31.8146H6.41175ZM12.2052 27.7649C12.7114 27.7649 13.0301 27.5024 13.8176 26.7337L17.4736 23.1151C17.5111 23.0776 17.5861 23.0776 17.6236 23.1151L21.2797 26.7337C22.0859 27.5024 22.3858 27.7649 22.8921 27.7649C23.5858 27.7649 24.0545 27.2774 24.0545 26.4524V11.0596C24.0545 9.22216 23.0796 8.24722 21.2609 8.24722H13.8363C12.0177 8.24722 11.0427 9.22216 11.0427 11.0596V26.4524C11.0427 27.2774 11.5115 27.7649 12.2052 27.7649Z" fill="#37B34A"/>
</svg>
