<svg width="34" height="34" viewBox="0 0 34 34" fill="none" xmlns="http://www.w3.org/2000/svg">
<path d="M0.705078 33.6828L3.02767 25.1978C1.59446 22.7142 0.841377 19.8987 0.842754 17.0116C0.846884 7.98562 8.19188 0.640625 17.2165 0.640625C21.596 0.642002 25.707 2.3478 28.7992 5.44275C31.89 8.5377 33.5917 12.6515 33.5903 17.0268C33.5862 26.0542 26.2412 33.3992 17.2165 33.3992C14.4768 33.3978 11.777 32.7108 9.38553 31.4056L0.705078 33.6828ZM9.78754 28.4415C12.095 29.8114 14.2978 30.6319 17.211 30.6333C24.7116 30.6333 30.8216 24.5287 30.8258 17.024C30.8285 9.50419 24.7474 3.40791 17.222 3.40515C9.71595 3.40515 3.61004 9.5097 3.60728 17.013C3.60591 20.0763 4.50355 22.37 6.0111 24.7697L4.63572 29.7921L9.78754 28.4415ZM25.4647 20.9189C25.3628 20.7482 25.0902 20.6463 24.6799 20.4411C24.271 20.236 22.2596 19.2461 21.8837 19.1098C21.5093 18.9735 21.2367 18.9047 20.9627 19.315C20.6901 19.7239 19.9053 20.6463 19.6672 20.9189C19.429 21.1915 19.1894 21.2259 18.7805 21.0208C18.3716 20.8156 17.0527 20.3847 15.4901 18.99C14.2744 17.9052 13.4525 16.5656 13.2143 16.1553C12.9761 15.7464 13.1895 15.5247 13.3933 15.321C13.5778 15.1379 13.8022 14.8433 14.0073 14.6037C14.2152 14.3669 14.2827 14.1962 14.4203 13.9222C14.5566 13.6496 14.4892 13.41 14.3859 13.2049C14.2827 13.0012 13.4649 10.987 13.1248 10.1678C12.7916 9.37064 12.4543 9.47803 12.2038 9.46564L11.419 9.45187C11.1464 9.45187 10.7031 9.55375 10.3286 9.96402C9.95413 10.3743 8.89678 11.3628 8.89678 13.377C8.89678 15.3912 10.363 17.3366 10.5668 17.6092C10.7719 17.8818 13.4511 22.0148 17.5552 23.7867C18.5313 24.208 19.2941 24.4599 19.8874 24.6485C20.8677 24.9597 21.7598 24.9156 22.4647 24.811C23.2509 24.6939 24.8851 23.8211 25.2265 22.8656C25.5679 21.9088 25.5679 21.0896 25.4647 20.9189Z" fill="white"/>
</svg>
