<svg width="111" height="111" viewBox="0 0 111 111" fill="none" xmlns="http://www.w3.org/2000/svg">
<path d="M55.0593 110.119C85.2514 110.119 110.172 85.1982 110.172 55.0593C110.172 24.9205 85.1982 0 55.0061 0C24.8672 0 0 24.9205 0 55.0593C0 85.1982 24.9205 110.119 55.0593 110.119ZM26.4647 55.0061C26.4647 53.5151 26.9972 52.2904 28.3284 51.0657L47.1252 32.535C48.0837 31.5766 49.1487 31.2038 50.4799 31.2038C53.1424 31.2038 55.0061 33.1208 55.0061 35.7832C55.0061 37.1144 54.4203 38.3392 53.5683 39.1912L46.9122 45.581L40.6821 50.5332L52.0241 50.0007H78.9148C81.737 50.0007 83.7604 52.1306 83.7604 55.0593C83.7604 57.9347 81.737 60.0647 78.9148 60.0647H52.0241L40.6821 59.5322L46.859 64.4844L53.5683 70.8742C54.4736 71.7262 55.0061 72.9509 55.0061 74.2822C55.0061 76.9446 53.1424 78.9148 50.4799 78.9148C49.1487 78.9148 48.0837 78.4356 47.1252 77.5303L28.3284 59.053C27.0504 57.8283 26.4647 56.6035 26.4647 55.0061Z" fill="white"/>
</svg>
