<svg width="46" height="32" viewBox="0 0 46 32" fill="none" xmlns="http://www.w3.org/2000/svg">
<path d="M4.39256 10.8561H9.00008V8.42922C9.00008 6.72338 9.93214 5.80891 11.6556 5.80891H18.1624C19.8858 5.80891 20.8179 6.72338 20.8179 8.42922V10.8561H24.7747V8.42922C24.7747 6.72338 25.7068 5.80891 27.5005 5.80891H33.6732C35.4846 5.80891 36.4166 6.72338 36.4166 8.42922V10.8561H41.0241V5.80891C41.0241 2.46757 39.2304 0.726562 35.9594 0.726562H9.45732C6.18633 0.726562 4.39256 2.46757 4.39256 5.80891V10.8561ZM0.0488281 29.6555C0.0488281 30.6051 0.664337 31.203 1.59639 31.203H2.68672C3.61878 31.203 4.23429 30.6051 4.23429 29.6555V27.1231C4.44532 27.1759 5.06083 27.211 5.50048 27.211H39.9162C40.3559 27.211 40.9714 27.1759 41.1824 27.1231V29.6555C41.1824 30.6051 41.7979 31.203 42.73 31.203H43.8203C44.7524 31.203 45.3679 30.6051 45.3679 29.6555V18.9632C45.3679 15.4636 43.4334 13.5467 39.9162 13.5467H5.50048C1.98328 13.5467 0.0488281 15.4636 0.0488281 18.9632V29.6555Z" fill="#37B34A"/>
</svg>
