<svg width="46" height="32" viewBox="0 0 46 32" fill="none" xmlns="http://www.w3.org/2000/svg">
<path id="bed.double.fill" d="M4.84471 10.7408H9.45223V8.31398C9.45223 6.60814 10.3843 5.69367 12.1077 5.69367H18.6145C20.3379 5.69367 21.27 6.60814 21.27 8.31398V10.7408H25.2268V8.31398C25.2268 6.60814 26.1589 5.69367 27.9527 5.69367H34.1253C35.9367 5.69367 36.8688 6.60814 36.8688 8.31398V10.7408H41.4763V5.69367C41.4763 2.35234 39.6825 0.611328 36.4115 0.611328H9.90947C6.63848 0.611328 4.84471 2.35234 4.84471 5.69367V10.7408ZM0.500977 29.5402C0.500977 30.4899 1.11649 31.0878 2.04854 31.0878H3.13887C4.07093 31.0878 4.68644 30.4899 4.68644 29.5402V27.0079C4.89747 27.0606 5.51298 27.0958 5.95263 27.0958H40.3684C40.808 27.0958 41.4235 27.0606 41.6346 27.0079V29.5402C41.6346 30.4899 42.2501 31.0878 43.1821 31.0878H44.2724C45.2045 31.0878 45.82 30.4899 45.82 29.5402V18.848C45.82 15.3484 43.8856 13.4315 40.3684 13.4315H5.95263C2.43543 13.4315 0.500977 15.3484 0.500977 18.848V29.5402Z" fill="#212121"/>
</svg>
