<svg width="35" height="27" viewBox="0 0 35 27" fill="none" xmlns="http://www.w3.org/2000/svg">
<path d="M5.44119 26.8066H29.633C32.5277 26.8066 34.2074 25.1269 34.2074 21.9173V5.34444C34.2074 2.13486 32.5127 0.455078 29.2731 0.455078H5.08124C2.18662 0.455078 0.506836 2.11986 0.506836 5.34444V21.9173C0.506836 25.1269 2.20161 26.8066 5.44119 26.8066ZM15.6699 14.1483L4.75128 3.3497C4.96125 3.30471 5.20122 3.27471 5.45619 3.27471H29.2581C29.528 3.27471 29.768 3.30471 29.993 3.3647L19.0894 14.1483C18.4595 14.7632 17.9346 15.0332 17.3796 15.0332C16.8247 15.0332 16.2998 14.7482 15.6699 14.1483ZM3.31147 5.55441L11.4704 13.5784L3.31147 21.6473V5.55441ZM23.2889 13.5784L31.4028 5.59941V21.6173L23.2889 13.5784ZM5.45619 23.972C5.18623 23.972 4.93126 23.942 4.70629 23.897L13.3002 15.3781L14.1101 16.188C15.2049 17.2529 16.2548 17.7028 17.3796 17.7028C18.4895 17.7028 19.5543 17.2529 20.6342 16.188L21.4591 15.3781L30.038 23.882C29.798 23.942 29.543 23.972 29.2581 23.972H5.45619Z" fill="white"/>
</svg>
