<svg width="269" height="44" viewBox="0 0 269 44" fill="none" xmlns="http://www.w3.org/2000/svg">
<path d="M72.6995 3.54492L78.6269 13.7217L90.1373 16.2143L82.2903 24.9964L83.4767 36.7137L72.6995 31.9645L61.9223 36.7137L63.1087 24.9964L55.2616 16.2143L66.772 13.7217L72.6995 3.54492Z" fill="#272727"/>
<path d="M134.732 0.160156L141.754 12.2155L155.389 15.1681L146.094 25.5713L147.499 39.4514L134.732 33.8256L121.966 39.4514L123.371 25.5713L114.076 15.1681L127.711 12.2155L134.732 0.160156Z" fill="#272727"/>
<path d="M196.766 3.54492L202.693 13.7217L214.204 16.2143L206.357 24.9964L207.543 36.7137L196.766 31.9645L185.989 36.7137L187.175 24.9964L179.328 16.2143L190.838 13.7217L196.766 3.54492Z" fill="#272727"/>
<path d="M252.873 6.08594L257.978 14.852L267.893 16.999L261.134 24.5637L262.156 34.6566L252.873 30.5659L243.589 34.6566L244.611 24.5637L237.852 16.999L247.767 14.852L252.873 6.08594Z" fill="#272727"/>
<path d="M16.5913 6.08594L21.6971 14.852L31.6119 16.999L24.8526 24.5637L25.8745 34.6566L16.5913 30.5659L7.30816 34.6566L8.33007 24.5637L1.57084 16.999L11.4856 14.852L16.5913 6.08594Z" fill="#272727"/>
</svg>
