<svg width="54" height="72" viewBox="0 0 54 72" fill="none" xmlns="http://www.w3.org/2000/svg">
<path d="M0 48.3615C0 63.0831 9.90182 71.8702 23.2463 71.8702C33.2465 71.8702 39.7384 67.8045 44.1975 59.6404C47.3779 54.5584 49.6075 47.5746 51.4436 41.5417C52.4272 38.4269 53.7715 34.4924 53.8698 32.7547C54.001 30.7874 52.7223 29.3776 50.755 29.2464C48.4927 29.0825 47.0828 30.394 45.673 33.3449L41.0827 43.2139C40.6565 44.1975 40.1974 44.5254 39.6728 44.5254C39.0827 44.5254 38.6564 44.1975 38.6564 43.1155V8.45917C38.6564 6.32798 36.9843 4.65582 34.8531 4.65582C32.7547 4.65582 31.0825 6.32798 31.0825 8.45917V33.6727C30.2301 33.3777 29.312 33.1154 28.3612 32.9186V3.80335C28.3612 1.67216 26.689 0 24.5578 0C22.4594 0 20.7873 1.67216 20.7873 3.80335V32.558C19.8036 32.6563 18.8528 32.7875 17.902 32.9514V6.52471C17.902 4.42631 16.2298 2.75415 14.1314 2.75415C12.0002 2.75415 10.3281 4.42631 10.3281 6.52471V35.181C9.34443 35.64 8.42638 36.1646 7.57391 36.722V16.7544C7.57391 14.656 5.90175 12.9838 3.80335 12.9838C1.67216 12.9838 0 14.656 0 16.7544V48.3615Z" fill="white"/>
</svg>
