<svg width="95" height="95" viewBox="0 0 95 95" fill="none" xmlns="http://www.w3.org/2000/svg">
<path d="M47.7478 94.3569C73.5038 94.3569 94.7627 73.098 94.7627 47.3874C94.7627 21.6769 73.4584 0.417969 47.7024 0.417969C21.9918 0.417969 0.77832 21.6769 0.77832 47.3874C0.77832 73.098 22.0372 94.3569 47.7478 94.3569ZM47.7478 84.9994C26.8977 84.9994 10.2267 68.2375 10.2267 47.3874C10.2267 26.5374 26.8977 9.82095 47.7024 9.82095C68.5525 9.82095 85.3143 26.5374 85.3597 47.3874C85.4051 68.2375 68.5979 84.9994 47.7478 84.9994ZM37.0275 27.7638C29.5778 27.7638 24.0359 33.442 24.0359 41.4822C24.0359 53.8832 37.4817 64.649 45.3857 69.6003C46.1579 70.0545 47.2027 70.6905 47.8386 70.6905C48.4746 70.6905 49.4285 70.0545 50.1553 69.6003C57.9684 64.5581 71.5051 53.8832 71.5051 41.4822C71.5051 33.442 65.9632 27.7638 58.4681 27.7638C53.653 27.7638 49.8828 30.5348 47.7478 34.3959C45.6128 30.5348 41.9334 27.7638 37.0275 27.7638Z" fill="#37B34A"/>
</svg>
