<svg width="75" height="75" viewBox="0 0 75 75" fill="none" xmlns="http://www.w3.org/2000/svg">
<g id="Group 1590">
<path id="Vector" d="M37.309 6.96196C47.2794 6.96196 48.4601 7.00569 52.3812 7.18061C56.0253 7.34095 57.9931 7.95316 59.305 8.46334C61.0396 9.13386 62.2932 9.95015 63.5905 11.2475C64.9024 12.5593 65.7041 13.7983 66.3746 15.533C66.8848 16.8448 67.497 18.8272 67.6573 22.4568C67.8323 26.3925 67.876 27.5732 67.876 37.5289C67.876 47.4993 67.8323 48.68 67.6573 52.601C67.497 56.2452 66.8848 58.213 66.3746 59.5249C65.7041 61.2595 64.8878 62.5131 63.5905 63.8104C62.2786 65.1223 61.0396 65.924 59.305 66.5945C57.9931 67.1047 56.0107 67.7169 52.3812 67.8772C48.4455 68.0521 47.2648 68.0959 37.309 68.0959C27.3387 68.0959 26.158 68.0521 22.2369 67.8772C18.5928 67.7169 16.625 67.1047 15.3131 66.5945C13.5785 65.924 12.3249 65.1077 11.0276 63.8104C9.7157 62.4985 8.91399 61.2595 8.24347 59.5249C7.73329 58.213 7.12108 56.2306 6.96074 52.601C6.78582 48.6654 6.74209 47.4847 6.74209 37.5289C6.74209 27.5586 6.78582 26.3779 6.96074 22.4568C7.12108 18.8127 7.73329 16.8448 8.24347 15.533C8.91399 13.7983 9.73028 12.5448 11.0276 11.2475C12.3395 9.93557 13.5785 9.13386 15.3131 8.46334C16.625 7.95316 18.6074 7.34095 22.2369 7.18061C26.158 7.00569 27.3387 6.96196 37.309 6.96196ZM37.309 0.242188C27.1784 0.242188 25.9102 0.285917 21.9308 0.460835C17.966 0.635753 15.2402 1.27712 12.8788 2.19544C10.4154 3.15749 8.33093 4.42565 6.26107 6.51009C4.17662 8.57995 2.90847 10.6644 1.94642 13.1133C1.0281 15.4892 0.38673 18.2005 0.211812 22.1653C0.0368936 26.1592 -0.00683594 27.4274 -0.00683594 37.5581C-0.00683594 47.6887 0.0368936 48.9569 0.211812 52.9363C0.38673 56.9011 1.0281 59.6269 1.94642 61.9883C2.90847 64.4517 4.17662 66.5362 6.26107 68.606C8.33093 70.6759 10.4154 71.9586 12.8642 72.9061C15.2402 73.8244 17.9514 74.4658 21.9162 74.6407C25.8956 74.8156 27.1638 74.8594 37.2945 74.8594C47.4251 74.8594 48.6933 74.8156 52.6727 74.6407C56.6375 74.4658 59.3633 73.8244 61.7247 72.9061C64.1736 71.9586 66.258 70.6759 68.3279 68.606C70.3977 66.5362 71.6805 64.4517 72.6279 62.0029C73.5463 59.6269 74.1876 56.9157 74.3625 52.9509C74.5375 48.9715 74.5812 47.7033 74.5812 37.5726C74.5812 27.442 74.5375 26.1738 74.3625 22.1944C74.1876 18.2296 73.5463 15.5038 72.6279 13.1424C71.7096 10.6644 70.4415 8.57995 68.357 6.51009C66.2872 4.44022 64.2027 3.15749 61.7539 2.21002C59.3779 1.2917 56.6667 0.65033 52.7018 0.475412C48.7079 0.285917 47.4397 0.242188 37.309 0.242188Z" fill="white"/>
<path id="Vector_2" d="M37.3092 18.3906C26.7267 18.3906 18.1411 26.9762 18.1411 37.5587C18.1411 48.1413 26.7267 56.7269 37.3092 56.7269C47.8918 56.7269 56.4773 48.1413 56.4773 37.5587C56.4773 26.9762 47.8918 18.3906 37.3092 18.3906ZM37.3092 49.9925C30.4437 49.9925 24.8755 44.4243 24.8755 37.5587C24.8755 30.6932 30.4437 25.125 37.3092 25.125C44.1748 25.125 49.743 30.6932 49.743 37.5587C49.743 44.4243 44.1748 49.9925 37.3092 49.9925Z" fill="white"/>
<path id="Vector_3" d="M61.7102 17.6273C61.7102 20.1054 59.6987 22.1023 57.2352 22.1023C54.7572 22.1023 52.7603 20.0908 52.7603 17.6273C52.7603 15.1493 54.7718 13.1523 57.2352 13.1523C59.6987 13.1523 61.7102 15.1639 61.7102 17.6273Z" fill="white"/>
</g>
</svg>
