<svg width="35" height="33" viewBox="0 0 35 33" fill="none" xmlns="http://www.w3.org/2000/svg">
<path d="M2.98327 31.9086C3.51284 31.9086 3.99428 31.7321 4.63618 31.363L12.4354 27.1585L20.9407 31.9246C21.6147 32.2937 22.3208 32.4703 23.0108 32.4703C23.6848 32.4703 24.3428 32.3098 24.9365 31.9567L32.9123 27.4634C34.0195 26.8375 34.501 25.9549 34.501 24.7353V3.18319C34.501 1.81913 33.6825 1.0007 32.3345 1.0007C31.805 1.0007 31.3235 1.20932 30.6656 1.56237L22.5775 6.05573L14.1685 0.984653C13.5587 0.631603 12.9008 0.455078 12.2268 0.455078C11.5688 0.455078 10.9108 0.615555 10.3331 0.952557L2.40555 5.46196C1.29826 6.08783 0.800781 6.93835 0.800781 8.15798V29.7422C0.800781 31.1062 1.61921 31.9086 2.98327 31.9086ZM10.9911 24.2859L4.39547 27.9127C4.28313 27.9609 4.18685 28.009 4.10661 28.009C3.91404 28.009 3.81775 27.8646 3.81775 27.6399V8.99246C3.81775 8.54313 3.97823 8.25427 4.39547 8.01355L10.4615 4.4991C10.638 4.38677 10.7985 4.30653 10.9911 4.21024V24.2859ZM14.0401 24.3662V4.59539C14.2006 4.67563 14.3771 4.77191 14.5376 4.8682L21.2616 8.92827V28.4102C21.053 28.2979 20.8444 28.1855 20.6197 28.0571L14.0401 24.3662ZM24.3267 28.6349V8.62336L30.9223 5.02868C31.0026 4.98053 31.0989 4.94844 31.1791 4.94844C31.3717 4.94844 31.5001 5.09287 31.5001 5.30149V23.8526C31.5001 24.318 31.3396 24.6069 30.9063 24.8476L25.0649 28.2337C24.8242 28.3781 24.5674 28.5225 24.3267 28.6349Z" fill="white"/>
</svg>
