<svg width="69" height="85" viewBox="0 0 69 85" fill="none" xmlns="http://www.w3.org/2000/svg">
<path d="M32.2625 18.5811C32.7361 18.5811 33.0275 18.2897 33.1004 17.8161C34.1933 11.8049 34.1204 11.732 40.4231 10.4934C40.8967 10.4205 41.2246 10.1291 41.2246 9.61903C41.2246 9.14542 40.8967 8.85397 40.4231 8.78111C34.1569 7.57888 34.3026 7.46958 33.1004 1.45842C33.0275 0.98481 32.7361 0.693359 32.2625 0.693359C31.7888 0.693359 31.4974 0.98481 31.3881 1.45842C30.2223 7.39672 30.4045 7.50601 24.0654 8.78111C23.5918 8.85397 23.3004 9.14542 23.3004 9.61903C23.3004 10.1291 23.5918 10.4205 24.1018 10.4934C30.368 11.732 30.3316 11.8049 31.3881 17.8161C31.4974 18.2897 31.7888 18.5811 32.2625 18.5811ZM14.5933 44.083C15.3219 44.083 15.8684 43.573 15.9777 42.8444C17.2528 33.1901 17.5442 33.1536 27.5992 31.2592C28.2914 31.1499 28.8379 30.6399 28.8379 29.8748C28.8379 29.1462 28.2914 28.5997 27.5628 28.4904C17.5806 27.1061 17.2163 26.8146 15.9777 16.9782C15.8684 16.2131 15.3219 15.7031 14.5933 15.7031C13.8282 15.7031 13.2817 16.2131 13.2089 17.0146C12.0066 26.6324 11.5695 26.6324 1.5873 28.4904C0.858671 28.6362 0.348633 29.1462 0.348633 29.8748C0.348633 30.6763 0.858671 31.1499 1.73302 31.2592C11.6059 32.8258 12.0066 33.1172 13.2089 42.7715C13.2817 43.573 13.8282 44.083 14.5933 44.083ZM39.8402 84.3396C40.8967 84.3396 41.6982 83.5746 41.8439 82.4816C44.4669 62.7359 47.2721 59.6392 66.7993 57.4898C67.9287 57.344 68.7302 56.5061 68.7302 55.4496C68.7302 54.3931 67.9287 53.5552 66.7993 53.4095C47.345 51.1507 44.5762 48.2362 41.8439 28.4176C41.6617 27.3246 40.8967 26.5596 39.8402 26.5596C38.7837 26.5596 37.9822 27.3246 37.8364 28.4176C35.2134 48.1633 32.4082 51.26 12.881 53.4095C11.7152 53.5552 10.9501 54.3931 10.9501 55.4496C10.9501 56.5061 11.7152 57.344 12.881 57.4898C32.2625 60.0764 34.9584 62.663 37.8364 82.4816C38.0186 83.5746 38.7837 84.3396 39.8402 84.3396Z" fill="white"/>
</svg>
