<svg width="38" height="45" viewBox="0 0 38 45" fill="none" xmlns="http://www.w3.org/2000/svg">
<path id="trapezoid.and.line.vertical" d="M0.788888 32.5706C0.00888294 35.7813 1.60517 37.8129 5.10613 37.8129H17.4955V43.1642C17.4955 44.2707 18.203 44.9418 19.2369 44.9418C20.2165 44.9418 20.9421 44.2707 20.9421 43.1642V37.8129H33.3133C36.8143 37.8129 38.4106 35.7813 37.6487 32.5706L32.7873 12.4718C32.0979 9.53321 30.4291 7.95506 27.3091 7.95506H20.9421V2.60386C20.9421 1.51548 20.2165 0.826172 19.2369 0.826172C18.203 0.826172 17.4955 1.51548 17.4955 2.60386V7.95506H11.1104C7.99033 7.95506 6.32149 9.53321 5.63218 12.4718L0.788888 32.5706ZM4.2717 32.4436L8.87918 13.0704C9.16941 11.9095 9.85872 11.329 11.1104 11.329H17.4955V34.4208H5.72288C4.56194 34.4208 3.98147 33.6408 4.2717 32.4436ZM27.3091 11.329C28.5607 11.329 29.2682 11.9095 29.5403 13.0704L34.1477 32.4436C34.438 33.6408 33.8575 34.4208 32.6966 34.4208H20.9421V11.329H27.3091Z" fill="#212121"/>
</svg>
