<svg width="63" height="68" viewBox="0 0 63 68" fill="none" xmlns="http://www.w3.org/2000/svg">
<path id="person.crop.rectangle.stack.fill" d="M12.7074 5.04659H50.8491C50.6382 2.39535 49.0716 0.949219 46.1793 0.949219H17.3471C14.4849 0.949219 12.8882 2.39535 12.7074 5.04659ZM6.56134 13.7535H56.9952C56.5734 10.8914 55.1272 9.26447 51.9337 9.26447H11.6228C8.42926 9.26447 6.98312 10.8914 6.56134 13.7535ZM10.1164 67.9232H53.41C59.6765 67.9232 62.9604 64.6694 62.9604 58.4631V28.1244C62.9604 21.9181 59.6765 18.6643 53.41 18.6643H10.1164C3.81971 18.6643 0.565918 21.888 0.565918 28.1244V58.4631C0.565918 64.6694 3.81971 67.9232 10.1164 67.9232ZM31.8084 47.7376C26.777 47.6773 22.8303 43.4896 22.8002 37.8858C22.8002 32.5833 26.777 28.2148 31.8084 28.2148C36.8698 28.2148 40.8467 32.5833 40.8467 37.8858C40.8467 43.4896 36.9 47.7978 31.8084 47.7376ZM14.6958 62.229C17.0759 56.1733 23.7944 51.9253 31.8084 51.9253C39.8525 51.9253 46.571 56.1733 48.9511 62.229H14.6958Z" fill="white"/>
</svg>
